<?xml version="1.0" encoding="UTF-8" standalone="no"?>
<svg
   xmlns:dc="http://purl.org/dc/elements/1.1/"
   xmlns:cc="http://creativecommons.org/ns#"
   xmlns:rdf="http://www.w3.org/1999/02/22-rdf-syntax-ns#"
   xmlns:svg="http://www.w3.org/2000/svg"
   xmlns="http://www.w3.org/2000/svg"
   xmlns:sodipodi="http://sodipodi.sourceforge.net/DTD/sodipodi-0.dtd"
   xmlns:inkscape="http://www.inkscape.org/namespaces/inkscape"
   width="48.46875"
   height="40.000011"
   version="1.1"
   id="svg26"
   sodipodi:docname="OR_ANSI.svg"
   inkscape:version="0.92.4 (5da689c313, 2019-01-14)">
  <metadata
     id="metadata32">
    <rdf:RDF>
      <cc:Work
         rdf:about="">
        <dc:format>image/svg+xml</dc:format>
        <dc:type
           rdf:resource="http://purl.org/dc/dcmitype/StillImage" />
      </cc:Work>
    </rdf:RDF>
  </metadata>
  <defs
     id="defs30" />
  <sodipodi:namedview
     pagecolor="#ffffff"
     bordercolor="#666666"
     borderopacity="1"
     objecttolerance="10"
     gridtolerance="10"
     guidetolerance="10"
     inkscape:pageopacity="0"
     inkscape:pageshadow="2"
     inkscape:window-width="1824"
     inkscape:window-height="1046"
     id="namedview28"
     showgrid="false"
     inkscape:zoom="12.66"
     inkscape:cx="25.90625"
     inkscape:cy="20.00001"
     inkscape:window-x="85"
     inkscape:window-y="-11"
     inkscape:window-maximized="1"
     inkscape:current-layer="svg26" />
  <path
     d="M 0,0 2,2.4375 C 2,2.4375 7.65625,9.437549 7.65625,20 7.65625,30.562451 2,37.5625 2,37.5625 L 0,40 h 17.15625 c 2.408076,10e-7 7.689699,0.02451 13.625,-2.40625 5.935301,-2.430764 12.536536,-7.343266 17.6875,-16.875 L 47.15625,20 48.46875,19.28125 C 38.165637,0.21559 21.912824,0 17.15625,0 Z M 5.875,3 H 17.15625 C 21.840423,3 35.4431,2.869793 45.125,20 40.358214,28.429075 34.603719,32.68391 29.40625,34.8125 24.045589,37.007924 19.564325,37.000001 17.15625,37 h -11.25 c 1.873588,-3.108434 4.75,-9.04935 4.75,-17 0,-7.973354 -2.908531,-13.900185 -4.78125,-17 z"
     id="path24"
     inkscape:connector-curvature="0"
     style="fill-rule:evenodd" />
  <path
     style="color:#000000;clip-rule:nonzero;display:inline;overflow:visible;visibility:visible;opacity:1;isolation:auto;mix-blend-mode:normal;color-interpolation:sRGB;color-interpolation-filters:linearRGB;solid-color:#000000;solid-opacity:1;fill:#000000;fill-opacity:0.9953052;fill-rule:nonzero;stroke:none;stroke-width:5;stroke-linecap:butt;stroke-linejoin:miter;stroke-miterlimit:4;stroke-dasharray:none;stroke-dashoffset:10.02000046;stroke-opacity:1;color-rendering:auto;image-rendering:auto;shape-rendering:auto;text-rendering:auto;enable-background:accumulate"
     id="path36"
     d="m 47.711996,20.373023 c -0.159137,-0.123565 -0.280427,-0.28504 -0.378705,-0.459286 0.0082,0.02571 -0.101991,-0.197282 -0.09811,-0.174193 0.0031,0.01868 0.0037,0.0624 0.02026,0.05311 0.342705,-0.192865 0.666252,-0.41795 0.999378,-0.626926 0.09096,0.0288 0.144974,0.149536 0.19223,0.227216 0.07494,0.09312 0.149787,0.180551 0.19827,0.290836 0.0051,0.0098 0.02932,0.06483 0.04752,0.07391 0.03716,0.01854 -0.02337,-0.0539 0.02716,-0.0022 0.07095,0.07261 -0.0031,0.01431 0.03967,0.04669 0.07195,0.09518 0.08614,0.216251 0.08901,0.33199 -0.0021,0.134949 -0.0681,0.230088 -0.165886,0.315578 -0.355151,0.199013 -0.710368,0.39791 -1.065454,0.597041 -0.03472,0.01947 -0.14193,0.072 -0.107497,0.05203 0.317977,-0.18446 0.638452,-0.364581 0.958159,-0.546026 0.0873,-0.04954 -0.06976,0.04219 -0.09659,0.05789 -0.394009,0.342558 -0.798951,0.516303 -1.295346,0.802097 0.315807,-0.181229 1.260453,-0.729669 0.947421,-0.543688 -0.35069,0.208355 -0.705007,0.410596 -1.060405,0.610815 -0.10907,0.06145 -0.162597,0.02281 -0.218467,-0.07088 -0.03918,-0.157342 0.07098,-0.280624 0.164152,-0.393971 0.109979,-0.102448 0.187863,-0.22511 0.256129,-0.357384 0.06843,-0.138558 0.08656,-0.290968 0.09739,-0.442958 -0.0017,-0.05247 0.02573,-0.179089 -0.04372,-0.209543 -0.02497,-0.01095 -0.0545,0.0024 -0.08164,0.0049 -0.134768,0.01678 -0.277702,-0.0083 -0.390089,0.07828 0.319749,-0.18259 0.638768,-0.366464 0.959248,-0.547769 0.01993,-0.01127 -0.03969,0.02886 -0.04624,0.05079 -0.01351,0.04523 0.01283,0.09405 0.03125,0.133005 0.02684,0.0411 0.08627,0.250401 0.159357,0.176517 0.199675,-0.366286 0.02216,-0.02456 -0.948555,0.515281 -0.01619,0.009 0.02748,-0.02484 0.04101,-0.03749 0.04527,-0.04229 0.07615,-0.08391 0.10847,-0.136696 0,0 1.075516,-0.469393 1.075516,-0.469393 v 0 c -0.07368,0.09732 2.71e-4,-0.0076 -0.06329,0.108067 -0.01451,0.02639 -0.04607,0.07327 -0.07372,0.09013 -1.037994,0.632576 -0.641086,0.663342 -1.098571,0.614754 -0.116717,-0.06122 -0.16722,-0.165092 -0.220425,-0.281504 -0.283373,-0.567042 0.436623,-0.665282 0.99434,-0.945777 0.140246,-0.03228 0.288911,-0.03673 0.431859,-0.02371 0.164142,0.05415 0.226927,0.185721 0.210811,0.354964 -0.0074,0.163554 -0.01941,0.328655 -0.07816,0.483239 -0.06104,0.142496 -0.12964,0.280318 -0.240117,0.39161 -0.08541,0.0764 -0.156311,0.166283 -0.219756,0.261181 -0.0056,-0.0067 -0.0178,-0.01133 -0.01689,-0.02002 1.37e-4,-0.0013 0.194164,-0.103315 0.12288,-0.06185 -0.527803,0.306987 -2.125969,1.228782 0.114448,-0.06435 -1.682466,0.981283 -1.042408,0.667123 -0.708939,0.368102 0.05567,-0.0571 0.02348,-0.03195 0.09167,-0.07107 0.35226,-0.202067 0.703769,-0.405447 1.05667,-0.606393 0.03483,-0.01983 0.144452,-0.06905 0.109937,-0.04868 -0.315845,0.186401 -0.634694,0.367664 -0.952041,0.551497 0.09619,-0.03614 0.194353,-0.106198 0.211796,-0.212505 0.01445,-0.07615 0.0079,-0.175222 -0.04353,-0.237708 -0.04432,-0.0456 -0.113089,-0.08539 -0.133797,-0.164275 -0.04341,-0.105499 -0.125801,-0.182683 -0.190302,-0.275508 -0.05397,-0.08685 -0.108308,-0.161653 -0.193628,-0.219966 1.008937,-0.709052 0.815595,-0.982949 1.111843,-0.432262 0.08362,0.162963 0.191339,0.31168 0.34914,0.410389 0,0 -0.987113,0.632037 -0.987113,0.632037 z"
     inkscape:connector-curvature="0" />
</svg>
