<?xml version="1.0" encoding="UTF-8" standalone="no"?>
<svg
   xmlns:dc="http://purl.org/dc/elements/1.1/"
   xmlns:cc="http://creativecommons.org/ns#"
   xmlns:rdf="http://www.w3.org/1999/02/22-rdf-syntax-ns#"
   xmlns:svg="http://www.w3.org/2000/svg"
   xmlns="http://www.w3.org/2000/svg"
   xmlns:sodipodi="http://sodipodi.sourceforge.net/DTD/sodipodi-0.dtd"
   xmlns:inkscape="http://www.inkscape.org/namespaces/inkscape"
   width="54.57465"
   height="40.000011"
   version="1.1"
   id="svg90"
   sodipodi:docname="XOR_ANSI.svg"
   inkscape:version="0.92.4 (5da689c313, 2019-01-14)">
  <metadata
     id="metadata96">
    <rdf:RDF>
      <cc:Work
         rdf:about="">
        <dc:format>image/svg+xml</dc:format>
        <dc:type
           rdf:resource="http://purl.org/dc/dcmitype/StillImage" />
      </cc:Work>
    </rdf:RDF>
  </metadata>
  <defs
     id="defs94" />
  <sodipodi:namedview
     pagecolor="#ffffff"
     bordercolor="#666666"
     borderopacity="1"
     objecttolerance="10"
     gridtolerance="10"
     guidetolerance="10"
     inkscape:pageopacity="0"
     inkscape:pageshadow="2"
     inkscape:window-width="1824"
     inkscape:window-height="1046"
     id="namedview92"
     showgrid="false"
     inkscape:zoom="11.087434"
     inkscape:cx="20.105428"
     inkscape:cy="25.6564"
     inkscape:window-x="85"
     inkscape:window-y="-11"
     inkscape:window-maximized="1"
     inkscape:current-layer="svg90" />
  <g
     id="g88"
     style="fill-rule:evenodd"
     transform="translate(-18.34375,-5)">
    <path
       d="M 24.25,42 C 22.65263,44.6444 22,45 22,45 h -3.65625 l 2,-2.4375 C 20.34375,42.5625 26,35.56245 26,25 26,14.43755 20.34375,7.4375 20.34375,7.4375 L 18.34375,5 H 22 c 0.78125,0.9375 1.42188,1.65625 2.21875,3 C 26.09147,11.09981 29,17.02665 29,25 c 0,7.95065 -2.8967,13.87942 -4.75,17 z"
       id="path84"
       inkscape:connector-curvature="0" />
    <path
       d="m 24.09375,5 2,2.4375 c 0,0 5.65625,7.00005 5.65625,17.5625 0,10.56245 -5.65625,17.5625 -5.65625,17.5625 l -2,2.4375 H 41.25 c 2.40808,0 7.6897,0.02451 13.625,-2.40625 5.9353,-2.43076 12.53654,-7.34327 17.6875,-16.875 L 71.25,25 72.5625,24.28125 C 62.25939,5.21559 46.00657,5 41.25,5 Z m 5.875,3 H 41.25 C 45.93417,8 59.53685,7.8698 69.21875,25 64.45196,33.42907 58.69747,37.68391 53.5,39.8125 48.13934,42.00792 43.65808,42 41.25,42 H 30 c 1.87359,-3.10843 4.75,-9.04935 4.75,-17 0,-7.97335 -2.90853,-13.90019 -4.78125,-17 z"
       id="path86"
       inkscape:connector-curvature="0" />
  </g>
  <path
     style="color:#000000;clip-rule:nonzero;display:inline;overflow:visible;visibility:visible;opacity:1;isolation:auto;mix-blend-mode:normal;color-interpolation:sRGB;color-interpolation-filters:linearRGB;solid-color:#000000;solid-opacity:1;fill:#000000;fill-opacity:0.9953052;fill-rule:nonzero;stroke:none;stroke-width:5;stroke-linecap:butt;stroke-linejoin:miter;stroke-miterlimit:4;stroke-dasharray:none;stroke-dashoffset:10.02000046;stroke-opacity:1;color-rendering:auto;image-rendering:auto;shape-rendering:auto;text-rendering:auto;enable-background:accumulate"
     id="path98"
     d="m 53.787735,18.96031 c 0.06331,0.252806 0.110219,0.508833 0.14071,0.767553 0.01248,0.17382 0.02444,0.34938 0.08264,0.514955 0.06415,0.135467 0.08746,0.281949 0.111076,0.428295 0.0026,0.0044 0.0082,0.01836 0.0077,0.01328 -0.04529,-0.423035 -0.76919,0.364085 -1.148779,0.556236 -0.01675,0.0085 0.02492,-0.02818 0.03585,-0.04345 0.03316,-0.04634 0.0335,-0.0558 0.05593,-0.109169 0.03526,-0.14644 0.05194,-0.293758 0.121766,-0.429166 0.09996,-0.09968 0.15124,-0.211011 0.1786,-0.347665 0.01561,-0.134677 -0.0378,-0.255419 -0.0819,-0.378647 -0.01336,-0.06515 -0.03568,-0.120012 -0.07503,-0.172542 0,0 1.155302,-0.680291 1.155302,-0.680291 v 0 c 0.04269,0.06403 0.0797,0.126667 0.09205,0.204337 0.05031,0.14366 0.111199,0.281941 0.111,0.437965 -0.01667,0.147069 -0.03631,0.30187 -0.146496,0.411113 -0.121994,0.08874 -0.123228,0.244602 -0.143536,0.383131 -0.117617,0.51604 -1.081495,1.359669 -1.349788,0.779262 -0.01357,-0.138711 -0.03471,-0.276013 -0.09516,-0.403298 -0.06548,-0.175023 -0.08444,-0.361853 -0.09058,-0.547677 -0.02346,-0.251325 -0.05993,-0.502338 -0.136316,-0.743733 0,0 1.175,-0.640486 1.175,-0.640486 z"
     inkscape:connector-curvature="0" />
</svg>
